<?xml version="1.0" encoding="UTF-8" standalone="no"?><svg xmlns="http://www.w3.org/2000/svg" xmlns:xlink="http://www.w3.org/1999/xlink"><symbol viewBox="0 0 120 59.999999" id="gulplogo" xmlns="http://www.w3.org/2000/svg">
    <metadata id="ametadata16">
        <rdf:RDF xmlns:rdf="http://www.w3.org/1999/02/22-rdf-syntax-ns#">
            <cc:Work rdf:about="" xmlns:cc="http://creativecommons.org/ns#">
                <dc:format xmlns:dc="http://purl.org/dc/elements/1.1/">
                    image/svg+xml
                </dc:format>
                <dc:type rdf:resource="http://purl.org/dc/dcmitype/StillImage" xmlns:dc="http://purl.org/dc/elements/1.1/"/>
                <dc:title xmlns:dc="http://purl.org/dc/elements/1.1/"/>
            </cc:Work>
        </rdf:RDF>
    </metadata>
    <defs id="adefs14"/>
    <sodipodi:namedview pagecolor="#ffffff" bordercolor="#666666" borderopacity="1" objecttolerance="10" gridtolerance="10" guidetolerance="10" xmlns:inkscape="http://www.inkscape.org/namespaces/inkscape" inkscape:pageopacity="0" inkscape:pageshadow="2" inkscape:window-width="1920" inkscape:window-height="1001" id="anamedview12" showgrid="false" inkscape:zoom="1.3423616" inkscape:cx="126.27" inkscape:cy="76.580002" inkscape:window-x="-9" inkscape:window-y="-9" inkscape:window-maximized="1" inkscape:current-layer="svg10" xmlns:sodipodi="http://sodipodi.sourceforge.net/DTD/sodipodi-0.dtd"/>
    <g stroke-miterlimit="10" id="ag8" style="fill:#1a1a1a;stroke:#ffffff;stroke-miterlimit:10" transform="matrix(0.30371675,0,0,0.30371675,21.654242,6.6350704)">
        <path d="m 67.53,79.12 c -0.17,0.26 -0.5,1.08 -0.95,2.45 -0.46,1.38 -1.02,3.1 -1.68,5.2 -0.66,2.07 -1.38,4.4 -2.14,6.97 l -2.37,7.88 c -0.9,2.68 -1.6,5.3 -2.4,7.88 l -2,6.98 -1.5,5.22 -0.7,2.5 c -0.3,0.83 -0.6,1.75 -1.1,2.77 -0.5,1 -1.1,1.97 -1.7,2.88 -0.7,0.9 -1.4,1.67 -2.2,2.27 -0.8,0.6 -1.6,0.9 -2.5,0.9 -1.4,0 -2.4,-0.48 -3.1,-1.4 -0.7,-0.95 -1,-2.66 -1,-5.16 v -2.26 c 0,-0.83 0.4,-2.4 1,-4.68 0.6,-2.3 1.3,-4.88 2.2,-7.76 0.8,-2.9 1.8,-5.88 2.7,-8.97 l 2.7,-8.4 c -2.4,2.6 -4.9,5.2 -7.6,7.7 -2.7,2.6 -5.5,4.9 -8.3,6.9 -2.9,2 -5.8,3.7 -8.7,5 -2.9,1.3 -5.7,1.9 -8.4,1.9 -3.1,0 -5.7,-0.7 -7.9,-2.1 -2.2,-1.4 -4.1,-3.1 -5.5,-5.3 -1.4,-2.2 -2.5,-4.7 -3.2,-7.4 C 0.8,98.5 0.4,95.7 0.4,93 v -1 c 0,-0.3 0.04,-0.63 0.1,-0.94 0.24,-5 0.95,-10.1 2.1,-15.34 1.2,-5.28 2.7,-10.5 4.6,-15.7 1.9,-5.2 4.1,-10.3 6.6,-15.26 C 16.4,40 19.1,35.3 22,30.9 c 2.9,-4.4 6.02,-8.5 9.3,-12.2 3.3,-3.72 6.67,-6.92 10.14,-9.6 3.46,-2.7 6.96,-4.8 10.5,-6.3 3.5,-1.5 7,-2.3 10.46,-2.3 4,0 7.86,1.1 11.6,3.27 3.7,2.23 7.2,5.73 10.48,10.63 0.74,1.1 1.2,2.2 1.4,3.32 0.2,1.1 0.3,2.17 0.3,3.15 0,2.34 -0.55,4.2 -1.67,5.54 -1.1,1.4 -2.4,2 -4,2 -1.4,0 -2.7,-0.7 -3.9,-2.2 -1.2,-1.5 -2.6,-3.6 -4,-6.3 -1.4,-2.5 -2.9,-4.3 -4.6,-5.4 -1.7,-1.1 -3.5,-1.6 -5.5,-1.6 -3.1,0 -6.3,1.3 -9.8,3.9 -3.5,2.6 -6.9,5.9 -10.3,10.1 -3.4,4.2 -6.7,9 -9.8,14.4 -3.1,5.4 -5.9,10.9 -8.3,16.6 -2.4,5.7 -4.3,11.2 -5.7,16.7 -1.4,5.5 -2.1,10.4 -2.1,14.8 0,1.5 0.1,3 0.3,4.5 0.2,1.6 0.6,2.9 1.1,4.2 0.5,1.3 1.3,2.3 2.3,3.1 1,0.8 2.2,1.2 3.6,1.2 1.6,0 3.5,-0.5 5.5,-1.6 2.1,-1.1 4.2,-2.5 6.4,-4.3 2.2,-1.8 4.5,-3.8 6.7,-6 2.2,-2.2 4.4,-4.5 6.3,-6.8 1.9,-2.3 3.7,-4.5 5.1,-6.6 1.5,-2.1 2.6,-3.9 3.4,-5.5 L 63,53 c 0.74,-1.97 1.7,-3.38 2.93,-4.2 1.2,-0.84 2.43,-1.26 3.7,-1.26 0.6,0 1.23,0.1 1.85,0.3 0.6,0.2 1.18,0.52 1.67,0.96 0.5,0.4 0.87,1 1.16,1.7 0.3,0.7 0.5,1.5 0.5,2.5 0,2.5 -0.2,4.86 -0.6,7.04 -0.4,2.2 -1,4.3 -1.7,6.4 -0.6,2.05 -1.4,4.14 -2.2,6.25 -0.8,2.1 -1.6,4.3 -2.4,6.6 z m 83.03,15.28 c -1.93,2.6 -4.18,5.14 -6.74,7.6 a 67.566,67.566 0 0 1 -7.94,6.6 c -2.72,1.92 -5.4,3.47 -8.03,4.64 -2.64,1.17 -5,1.75 -7.1,1.75 -2.1,0 -3.83,-0.7 -5.15,-2.1 -1.32,-1.4 -1.98,-3.8 -1.98,-7.2 0,-2.4 0.36,-5.2 1.06,-8.4 -1.14,2 -2.57,4.1 -4.28,6.1 -1.7,2.1 -3.67,4 -5.86,5.7 -2.2,1.7 -4.66,3.1 -7.38,4.1 -2.72,1 -5.68,1.6 -8.9,1.6 -1.43,0 -2.83,-0.2 -4.17,-0.6 -1.4,-0.4 -2.6,-1 -3.6,-1.9 -1,-0.9 -1.8,-2.1 -2.5,-3.6 -0.6,-1.5 -0.9,-3.4 -0.9,-5.6 l 0.2,-2.4 c 0.2,-1.5 0.7,-4 1.7,-7.3 1,-3.3 2.4,-7.6 4.4,-12.9 2,-5.3 4.7,-11.6 8.3,-19.1 0.9,-2 1.9,-3.4 3.2,-4.3 1.2,-0.9 2.5,-1.3 3.9,-1.3 0.6,0 1.2,0.1 1.9,0.3 0.6,0.1 1.2,0.4 1.8,0.8 0.6,0.4 1,0.9 1.4,1.5 0.3,0.5 0.5,1.2 0.5,2 0,0.5 -0.1,1 -0.2,1.4 -0.3,0.9 -0.7,2 -1.4,3.4 l -2.6,4.94 c -1,1.8 -2,3.8 -3.1,5.92 -1.1,2.13 -2.1,4.4 -3,6.62 -0.9,2.3 -1.7,4.65 -2.4,7 -0.7,2.4 -1.1,4.7 -1.2,6.9 0,1 0.2,1.8 0.6,2.6 0.4,0.8 1.2,1.2 2.2,1.2 2.8,0 5.6,-0.9 8.2,-2.8 2.6,-1.87 5,-4.2 7.2,-6.98 2.2,-2.8 4.2,-5.8 6,-9 1.8,-3.2 3.2,-6.1 4.4,-8.74 0.8,-1.77 1.6,-3.67 2.2,-5.7 0.6,-2 1.3,-3.9 2.1,-5.6 0.7,-1.7 1.6,-3.16 2.6,-4.3 0.9,-1.14 2.1,-1.7 3.6,-1.7 1.5,0 2.8,0.6 3.7,1.8 0.9,1.2 1.4,2.6 1.4,4.3 0,0.9 -0.3,2.2 -0.9,3.8 -0.6,1.6 -1.3,3.5 -2.2,5.6 l -2.9,6.77 c -1.1,2.4 -2,4.8 -2.9,7.3 -0.9,2.45 -1.7,4.9 -2.3,7.24 -0.6,2.4 -0.9,4.6 -0.9,6.6 0,1.9 1,2.8 2.9,2.8 1.4,0 3.1,-0.4 5.1,-1.4 2,-0.9 4.1,-2.2 6.3,-3.9 2.2,-1.7 4.4,-3.7 6.6,-6 2.2,-2.3 4.2,-4.74 5.9,-7.4 l 0.7,10.6 z" id="apath2" style="fill:#1a1a1a" xmlns:inkscape="http://www.inkscape.org/namespaces/inkscape" inkscape:connector-curvature="0"/>
        <path d="m 152.6,90.5 c -0.48,1.2 -0.95,2.6 -1.4,4.18 -0.47,1.58 -0.7,3 -0.7,4.25 0,0.78 0.13,1.4 0.4,1.87 0.26,0.47 0.76,0.7 1.5,0.7 0.93,0 2.08,-0.32 3.47,-0.97 1.38,-0.65 2.87,-1.5 4.47,-2.58 1.6,-1.06 3.28,-2.28 5,-3.66 1.74,-1.4 3.47,-2.9 5.18,-4.3 1.7,-1.5 3.34,-3 4.9,-4.5 1.56,-1.5 2.96,-2.9 4.2,-4.1 0.34,-0.4 0.75,-0.6 1.24,-0.8 0.48,-0.2 0.9,-0.3 1.25,-0.3 0.9,0 1.6,0.3 2.2,1.1 0.6,0.7 0.9,1.7 0.9,2.9 0,1.1 -0.3,2.3 -0.9,3.6 -0.6,1.3 -1.7,2.6 -3.2,3.9 -2.8,3 -5.6,5.9 -8.5,8.7 -2.8,2.7 -5.7,5.2 -8.5,7.3 -2.8,2.1 -5.6,3.7 -8.4,5 -2.8,1.2 -5.5,1.8 -8.1,1.8 -1.8,0 -3.3,-0.3 -4.5,-0.9 -1.2,-0.6 -2.1,-1.4 -2.9,-2.4 -0.7,-1 -1.2,-2.2 -1.5,-3.5 -0.3,-1.4 -0.4,-2.8 -0.4,-4.3 0,-2.6 0.3,-5.2 1,-7.9 0.7,-2.7 1.4,-5.2 2.3,-7.4 1.6,-4.1 3.1,-8.1 4.7,-12.1 l 4.4,-11 L 170.6,15 c 0.75,-2 1.8,-3.42 3.15,-4.3 1.36,-0.8 2.7,-1.2 4.07,-1.2 1.4,0 2.6,0.4 3.74,1.3 1.1,0.86 1.7,2.3 1.7,4.27 0,0.93 -0.2,1.92 -0.55,2.96 -0.4,1 -0.8,2.14 -1.4,3.33 -1.1,2.42 -2.4,5.4 -3.9,8.94 l -5,11.6 c -1.7,4.15 -3.5,8.5 -5.3,13 l -5.4,13.2 c -1.8,4.28 -3.4,8.3 -4.9,12.14 l -3.9,9.93 z" id="apath4" style="fill:#1a1a1a" xmlns:inkscape="http://www.inkscape.org/namespaces/inkscape" inkscape:connector-curvature="0"/>
        <path d="m 245.9,76.4 c 0.63,-0.43 1.2,-0.77 1.73,-1.03 0.52,-0.26 1.03,-0.4 1.5,-0.4 0.97,0 1.7,0.44 2.18,1.3 0.5,0.86 0.8,1.9 0.8,3.16 0,1.35 -0.3,2.73 -0.9,4.13 -0.6,1.4 -1.4,2.58 -2.6,3.5 -4.7,4.17 -8.9,7.97 -12.5,11.4 -3.7,3.43 -7.1,6.38 -10.4,8.85 -3.3,2.5 -6.5,4.4 -9.6,5.8 -3.1,1.4 -6.4,2.1 -10,2.1 -3.3,0 -5.9,-0.7 -7.7,-2.2 -1.8,-1.4 -2.7,-3.4 -2.7,-6 v -0.6 c 0,-0.1 0.1,-0.4 0.1,-0.6 0.2,-1.5 0.9,-3.3 2.1,-5.4 1.2,-2 2.6,-4.1 4.3,-6.3 1.7,-2.2 3.5,-4.4 5.4,-6.6 1.9,-2.2 3.6,-4.3 5.3,-6.3 1.6,-2 2.9,-3.8 4,-5.5 1.1,-1.6 1.6,-3 1.6,-4 0,-0.6 -0.2,-1.1 -0.62,-1.5 -0.47,-0.3 -1.2,-0.5 -2.2,-0.5 -1.8,0 -3.6,0.5 -5.46,1.4 -1.9,0.9 -3.76,2.2 -5.6,3.7 -1.8,1.6 -3.6,3.3 -5.32,5.3 -1.72,2 -3.3,4.1 -4.9,6.2 -1.5,2.2 -2.9,4.3 -4.2,6.5 -1.2,2.2 -2.3,4.2 -3.2,6 l -1.1,2.4 -1.5,3.6 -1.8,4 -1.7,3.9 -1.4,3.3 c -0.4,1 -0.7,1.6 -0.9,2 -0.2,0.5 -0.5,1.4 -1,2.7 l -1.8,4.58 -2.1,5.5 -2,5.4 -1.7,4.58 c -0.5,1.3 -0.8,2.18 -0.9,2.65 -0.5,1.3 -1,2.6 -1.6,3.8 -0.6,1.2 -1.25,2.23 -2.02,3.14 -0.76,0.9 -1.64,1.65 -2.63,2.2 -1,0.5 -2.1,0.8 -3.3,0.8 -1.6,0 -2.9,-0.4 -3.9,-1.12 -1,-0.7 -1.6,-2.2 -1.6,-4.3 0,-1 0.1,-2.1 0.4,-3.2 0.2,-1.1 0.6,-2.12 1,-3.2 0.3,-1.1 0.8,-2.1 1.2,-3.1 0.4,-1 0.8,-2 1.1,-2.96 2.3,-5.2 4.75,-10.4 7.2,-15.66 2.45,-5.26 4.8,-10.4 7.1,-15.5 2.26,-5.1 4.35,-10.1 6.3,-15.1 1.9,-4.9 3.5,-9.66 4.8,-14.2 l 1.4,-3.96 c 0.6,-1.7 1.3,-3.4 2.1,-5 0.8,-1.6 1.7,-3.1 2.7,-4.3 1,-1.2 2.1,-1.83 3.2,-1.83 1.8,0 3.07,0.4 3.86,1.2 0.8,0.88 1.2,2 1.2,3.6 0,0.3 -0.04,0.8 -0.13,1.5 -0.1,0.7 -0.2,1.4 -0.36,2.15 l -0.43,2.1 c -0.1,0.7 -0.3,1.2 -0.4,1.5 1.6,-1.76 3.4,-3.5 5.28,-5.25 1.9,-1.73 3.9,-3.3 5.9,-4.7 2,-1.4 4.1,-2.6 6.2,-3.45 2.1,-0.9 4.2,-1.35 6.3,-1.35 1.5,0 2.9,0.2 4.36,0.6 1.4,0.42 2.7,1.03 3.8,1.84 1.17,0.8 2.08,1.8 2.78,3 0.7,1.2 1.05,2.63 1.05,4.24 0,2.13 -0.56,4.4 -1.6,6.8 -1.1,2.44 -2.4,4.9 -4.06,7.3 -1.6,2.46 -3.37,4.84 -5.26,7.15 -1.9,2.3 -3.6,4.4 -5.3,6.3 l -4.2,4.9 c -1.1,1.3 -1.7,2.2 -1.72,2.7 0,0.6 0.2,1.1 0.6,1.5 0.4,0.4 1.1,0.6 2,0.6 0.78,0 1.88,-0.45 3.3,-1.3 1.48,-0.9 3.5,-2.3 6.1,-4.36 2.6,-2.1 5.96,-4.8 9.97,-8.3 4,-3.46 9,-7.8 14.87,-13.07 z" id="apath6" style="fill:#1a1a1a" xmlns:inkscape="http://www.inkscape.org/namespaces/inkscape" inkscape:connector-curvature="0"/>
    </g>
</symbol><symbol viewBox="0 0 24 25" id="heart" xmlns="http://www.w3.org/2000/svg">
    <path fill-rule="evenodd" clip-rule="evenodd" d="M12.6924 7.58373C12.3055 7.95505 11.6945 7.95505 11.3076 7.58373L10.6152 6.91927C9.80477 6.14154 8.70994 5.66667 7.5 5.66667C5.01472 5.66667 3 7.68139 3 10.1667C3 12.5493 4.28979 14.5167 6.15176 16.1332C8.01532 17.7511 10.2434 18.8241 11.5746 19.3717C11.853 19.4862 12.147 19.4862 12.4254 19.3717C13.7566 18.8241 15.9847 17.7511 17.8482 16.1332C19.7102 14.5167 21 12.5493 21 10.1667C21 7.68139 18.9853 5.66667 16.5 5.66667C15.2901 5.66667 14.1952 6.14154 13.3848 6.91927L12.6924 7.58373ZM12 5.47624C10.8321 4.35548 9.24649 3.66667 7.5 3.66667C3.91015 3.66667 1 6.57682 1 10.1667C1 16.5349 7.97034 20.0517 10.8138 21.2214C11.5796 21.5364 12.4204 21.5364 13.1862 21.2214C16.0297 20.0517 23 16.5349 23 10.1667C23 6.57682 20.0899 3.66667 16.5 3.66667C14.7535 3.66667 13.1679 4.35548 12 5.47624Z"/>
</symbol><symbol viewBox="0 0 24 24" id="heart-line" xmlns="http://www.w3.org/2000/svg">
    <path d="M12.001 4.52853C14.35 2.42 17.98 2.49 20.2426 4.75736C22.5053 7.02472 22.583 10.637 20.4786 12.993L11.9999 21.485L3.52138 12.993C1.41705 10.637 1.49571 7.01901 3.75736 4.75736C6.02157 2.49315 9.64519 2.41687 12.001 4.52853ZM18.827 6.1701C17.3279 4.66794 14.9076 4.60701 13.337 6.01687L12.0019 7.21524L10.6661 6.01781C9.09098 4.60597 6.67506 4.66808 5.17157 6.17157C3.68183 7.66131 3.60704 10.0473 4.97993 11.6232L11.9999 18.6543L19.0201 11.6232C20.3935 10.0467 20.319 7.66525 18.827 6.1701Z"/>
</symbol><symbol viewBox="0 0 24 24" id="id-card-line" xmlns="http://www.w3.org/2000/svg">
    <path d="M3 6H21V18H3V6ZM2 4C1.44772 4 1 4.44772 1 5V19C1 19.5523 1.44772 20 2 20H22C22.5523 20 23 19.5523 23 19V5C23 4.44772 22.5523 4 22 4H2ZM13 8H19V10H13V8ZM18 12H13V14H18V12ZM10.5 10C10.5 11.3807 9.38071 12.5 8 12.5C6.61929 12.5 5.5 11.3807 5.5 10C5.5 8.61929 6.61929 7.5 8 7.5C9.38071 7.5 10.5 8.61929 10.5 10ZM8 13.5C6.067 13.5 4.5 15.067 4.5 17H11.5C11.5 15.067 9.933 13.5 8 13.5Z"/>
</symbol><symbol viewBox="0 0 24 24" id="search" xmlns="http://www.w3.org/2000/svg">
    <path d="M18.5 18.5L22 22M21 11.5C21 6.25329 16.7467 2 11.5 2C6.25329 2 2 6.25329 2 11.5C2 16.7467 6.25329 21 11.5 21C16.7467 21 21 16.7467 21 11.5Z" stroke-width="1.5" stroke-linecap="round" stroke-linejoin="round"/>
</symbol><symbol viewBox="0 0 24 24" id="search-line" xmlns="http://www.w3.org/2000/svg">
    <path d="M18.031 16.6168L22.3137 20.8995L20.8995 22.3137L16.6168 18.031C15.0769 19.263 13.124 20 11 20C6.032 20 2 15.968 2 11C2 6.032 6.032 2 11 2C15.968 2 20 6.032 20 11C20 13.124 19.263 15.0769 18.031 16.6168ZM16.0247 15.8748C17.2475 14.6146 18 12.8956 18 11C18 7.1325 14.8675 4 11 4C7.1325 4 4 7.1325 4 11C4 14.8675 7.1325 18 11 18C12.8956 18 14.6146 17.2475 15.8748 16.0247L16.0247 15.8748Z"/>
</symbol><symbol viewBox="0 0 24 24" id="user" xmlns="http://www.w3.org/2000/svg">
    <path d="M18.5588 19.5488C17.5654 16.8918 15.0036 15 12 15C8.99638 15 6.4346 16.8918 5.44117 19.5488M18.5588 19.5488C20.6672 17.7154 22 15.0134 22 12C22 6.47715 17.5228 2 12 2C6.47715 2 2 6.47715 2 12C2 15.0134 3.33285 17.7154 5.44117 19.5488M18.5588 19.5488C16.8031 21.0756 14.5095 22 12 22C9.49052 22 7.19694 21.0756 5.44117 19.5488M15 9C15 10.6569 13.6569 12 12 12C10.3431 12 9 10.6569 9 9C9 7.34315 10.3431 6 12 6C13.6569 6 15 7.34315 15 9Z" stroke-width="1.5" stroke-linejoin="round"/>
</symbol><symbol viewBox="0 0 24 24" id="user-star-line" xmlns="http://www.w3.org/2000/svg">
    <path d="M12 14V16C8.68629 16 6 18.6863 6 22H4C4 17.5817 7.58172 14 12 14ZM12 13C8.685 13 6 10.315 6 7C6 3.685 8.685 1 12 1C15.315 1 18 3.685 18 7C18 10.315 15.315 13 12 13ZM12 11C14.21 11 16 9.21 16 7C16 4.79 14.21 3 12 3C9.79 3 8 4.79 8 7C8 9.21 9.79 11 12 11ZM18 21.5L15.0611 23.0451L15.6224 19.7725L13.2447 17.4549L16.5305 16.9775L18 14L19.4695 16.9775L22.7553 17.4549L20.3776 19.7725L20.9389 23.0451L18 21.5Z"/>
</symbol><symbol id="website" enable-background="new 0 0 497 497" viewBox="0 0 497 497" xmlns="http://www.w3.org/2000/svg">
    <g>
        <path d="m497 128.5v312c0 11.046-8.954 20-20 20h-457c-11.046 0-20-8.954-20-20v-312z"/>
        <g>
            <path d="m290.498 294.5c0-23.196-18.804-42-42-42-7.031 0-13.659 1.728-19.482 4.782-13.386 7.021-19.327 21.053-19.327 37.218 0 23.196 15.613 36.457 38.809 36.457 16.214 0 30.282-3.645 37.282-17.099 3.014-5.792 4.718-12.376 4.718-19.358z"/>
            <path d="m286.468 312.47c-6.73 14.21-21.2 24.03-37.97 24.03-23.2 0-42-18.8-42-42 0-16.77 9.82-31.24 24.03-37.97-2.59 5.45-4.03 11.54-4.03 17.97 0 23.2 18.8 42 42 42 6.43 0 12.52-1.44 17.97-4.03z"/>
        </g>
        <g>
            <path d="m429.496 294.5c0-23.196-18.804-42-42-42-7.031 0-13.659 1.728-19.482 4.782-13.386 7.021-19.327 21.053-19.327 37.218 0 23.196 15.613 36.457 38.809 36.457 16.214 0 30.282-3.645 37.282-17.099 3.014-5.792 4.718-12.376 4.718-19.358z"/>
            <path d="m425.466 312.47c-6.73 14.21-21.2 24.03-37.97 24.03-23.2 0-42-18.8-42-42 0-16.77 9.82-31.24 24.03-37.97-2.59 5.45-4.03 11.54-4.03 17.97 0 23.2 18.8 42 42 42 6.43 0 12.52-1.44 17.97-4.03z"/>
        </g>
        <path d="m497 148.5v-20l-276.011-12.798-220.989 12.798v20 292c0 11.046 8.954 20 20 20h15c-8.28 0-15-6.72-15-15v-291c0-3.314 2.686-6 6-6z"/>
        <g>
            <path d="m497 56.5v72.5h-497v-72.5c0-11.046 8.954-20 20-20h457c11.046 0 20 8.954 20 20z"/>
            <g>
                <path d="m227.758 108.5c-8.255 0-14.947-6.716-14.947-15s6.692-15 14.947-15h208.315c8.255 0 14.947 6.716 14.947 15s-6.692 15-14.947 15z"/>
                <ellipse cx="160.869" cy="93.5" rx="14.947" ry="15"/>
                <path d="m171.361 104.184 12.874-12.869-13.139 1.179z"/>
                <path d="m150.592 82.608 12.562-12.516-2.693 10.408z"/>
                <ellipse cx="98.034" cy="93.5" rx="14.947" ry="15"/>
                <path d="m108.553 104.157 12.382-12.499-12.674.836z"/>
                <path d="m87.757 82.608 12.371-12.459-2.502 10.351z"/>
                <ellipse cx="32.947" cy="93.5" rx="14.947" ry="15"/>
                <path d="m43.769 103.846 12.721-13.186-13.139 1.381z"/>
                <path d="m22.67 82.608 11.622-12.038-1.753 9.93z"/>
            </g>
            <ellipse cx="173.849" cy="80.5" rx="14.947" ry="15"/>
            <path d="m217.514 82.577 12.971-12.991-3.025 14.276z"/>
            <path d="m446.83 103.915 13.149-13.179-10.185 3.381z"/>
            <ellipse cx="110.946" cy="80.5" rx="14.947" ry="15"/>
            <ellipse cx="45.495" cy="80.5" rx="14.947" ry="15"/>
            <path d="m240.737 95.5c-8.255 0-14.947-6.716-14.947-15s6.692-15 14.947-15h208.315c8.255 0 14.947 6.716 14.947 15s-6.692 15-14.947 15z"/>
        </g>
        <path d="m135.893 215 226.628 2c5.523 0 10-4.477 10-10l3.479-7v-30c0-5.523-4.477-10-10-10h-224l-6.107 5c-5.523 0-10 4.477-10 10v30c0 5.523 4.477 10 10 10z"/>
        <path d="m376 200v10c0 5.523-4.477 10-10 10h-234c-5.523 0-10-4.477-10-10v-40c0-5.523 4.477-10 10-10h10v33c0 3.866 3.134 7 7 7z"/>
        <g>
            <path d="m151.5 294.5c0-23.196-18.804-42-42-42-7.031 0-13.659 1.728-19.482 4.782-13.386 7.021-19.327 21.053-19.327 37.218 0 23.196 15.613 36.457 38.809 36.457 16.214 0 30.282-3.645 37.282-17.099 3.014-5.792 4.718-12.376 4.718-19.358z"/>
            <path d="m147.47 312.47c-6.73 14.21-21.2 24.03-37.97 24.03-23.2 0-42-18.8-42-42 0-16.77 9.82-31.24 24.03-37.97-2.59 5.45-4.03 11.54-4.03 17.97 0 23.2 18.8 42 42 42 6.43 0 12.52-1.44 17.97-4.03z"/>
        </g>
        <g>
            <g>
                <path d="m149.5 374h-70c-4.142 0-7.5-3.358-7.5-7.5s3.358-7.5 7.5-7.5h70c4.142 0 7.5 3.358 7.5 7.5s-3.358 7.5-7.5 7.5z"/>
            </g>
            <g>
                <path d="m149.5 404h-80c-4.142 0-7.5-3.358-7.5-7.5s3.358-7.5 7.5-7.5h80c4.142 0 7.5 3.358 7.5 7.5s-3.358 7.5-7.5 7.5z"/>
            </g>
            <g>
                <path d="m149.5 434h-80c-4.142 0-7.5-3.358-7.5-7.5s3.358-7.5 7.5-7.5h80c4.142 0 7.5 3.358 7.5 7.5s-3.358 7.5-7.5 7.5z"/>
            </g>
        </g>
        <g>
            <g>
                <path d="m288.5 374h-70c-4.142 0-7.5-3.358-7.5-7.5s3.358-7.5 7.5-7.5h70c4.143 0 7.5 3.358 7.5 7.5s-3.357 7.5-7.5 7.5z"/>
            </g>
            <g>
                <path d="m288.5 404h-80c-4.142 0-7.5-3.358-7.5-7.5s3.358-7.5 7.5-7.5h80c4.143 0 7.5 3.358 7.5 7.5s-3.357 7.5-7.5 7.5z"/>
            </g>
            <g>
                <path d="m288.5 434h-80c-4.142 0-7.5-3.358-7.5-7.5s3.358-7.5 7.5-7.5h80c4.143 0 7.5 3.358 7.5 7.5s-3.357 7.5-7.5 7.5z"/>
            </g>
        </g>
        <g>
            <g>
                <path d="m427.5 374h-70c-4.143 0-7.5-3.358-7.5-7.5s3.357-7.5 7.5-7.5h70c4.143 0 7.5 3.358 7.5 7.5s-3.357 7.5-7.5 7.5z"/>
            </g>
            <g>
                <path d="m427.5 404h-80c-4.143 0-7.5-3.358-7.5-7.5s3.357-7.5 7.5-7.5h80c4.143 0 7.5 3.358 7.5 7.5s-3.357 7.5-7.5 7.5z"/>
            </g>
            <g>
                <path d="m427.5 434h-80c-4.143 0-7.5-3.358-7.5-7.5s3.357-7.5 7.5-7.5h80c4.143 0 7.5 3.358 7.5 7.5s-3.357 7.5-7.5 7.5z"/>
            </g>
        </g>
    </g>
</symbol></svg>