<?xml version="1.0" encoding="UTF-8" standalone="no"?><svg viewBox="0 0 512 512" xmlns="http://www.w3.org/2000/svg" xmlns:xlink="http://www.w3.org/1999/xlink"><style>:root>svg{display:none}:root>svg:target{display:block}</style><svg viewBox="0 0 120 60" id="gulplogo" xmlns="http://www.w3.org/2000/svg"><g stroke-miterlimit="10" style="fill:#1a1a1a;stroke:#fff;stroke-miterlimit:10"><path d="M67.53 79.12c-.17.26-.5 1.08-.95 2.45-.46 1.38-1.02 3.1-1.68 5.2-.66 2.07-1.38 4.4-2.14 6.97l-2.37 7.88c-.9 2.68-1.6 5.3-2.4 7.88l-2 6.98-1.5 5.22-.7 2.5c-.3.83-.6 1.75-1.1 2.77-.5 1-1.1 1.97-1.7 2.88-.7.9-1.4 1.67-2.2 2.27-.8.6-1.6.9-2.5.9-1.4 0-2.4-.48-3.1-1.4-.7-.95-1-2.66-1-5.16v-2.26c0-.83.4-2.4 1-4.68.6-2.3 1.3-4.88 2.2-7.76.8-2.9 1.8-5.88 2.7-8.97l2.7-8.4c-2.4 2.6-4.9 5.2-7.6 7.7-2.7 2.6-5.5 4.9-8.3 6.9-2.9 2-5.8 3.7-8.7 5-2.9 1.3-5.7 1.9-8.4 1.9-3.1 0-5.7-.7-7.9-2.1-2.2-1.4-4.1-3.1-5.5-5.3-1.4-2.2-2.5-4.7-3.2-7.4C.8 98.5.4 95.7.4 93v-1c0-.3.04-.63.1-.94.24-5 .95-10.1 2.1-15.34 1.2-5.28 2.7-10.5 4.6-15.7 1.9-5.2 4.1-10.3 6.6-15.26C16.4 40 19.1 35.3 22 30.9c2.9-4.4 6.02-8.5 9.3-12.2 3.3-3.72 6.67-6.92 10.14-9.6 3.46-2.7 6.96-4.8 10.5-6.3 3.5-1.5 7-2.3 10.46-2.3 4 0 7.86 1.1 11.6 3.27C77.7 6 81.2 9.5 84.48 14.4c.74 1.1 1.2 2.2 1.4 3.32.2 1.1.3 2.17.3 3.15 0 2.34-.55 4.2-1.67 5.54-1.1 1.4-2.4 2-4 2-1.4 0-2.7-.7-3.9-2.2-1.2-1.5-2.6-3.6-4-6.3-1.4-2.5-2.9-4.3-4.6-5.4-1.7-1.1-3.5-1.6-5.5-1.6-3.1 0-6.3 1.3-9.8 3.9-3.5 2.6-6.9 5.9-10.3 10.1-3.4 4.2-6.7 9-9.8 14.4-3.1 5.4-5.9 10.9-8.3 16.6-2.4 5.7-4.3 11.2-5.7 16.7-1.4 5.5-2.1 10.4-2.1 14.8 0 1.5.1 3 .3 4.5.2 1.6.6 2.9 1.1 4.2.5 1.3 1.3 2.3 2.3 3.1 1 .8 2.2 1.2 3.6 1.2 1.6 0 3.5-.5 5.5-1.6 2.1-1.1 4.2-2.5 6.4-4.3 2.2-1.8 4.5-3.8 6.7-6s4.4-4.5 6.3-6.8c1.9-2.3 3.7-4.5 5.1-6.6 1.5-2.1 2.6-3.9 3.4-5.5L63 53c.74-1.97 1.7-3.38 2.93-4.2 1.2-.84 2.43-1.26 3.7-1.26.6 0 1.23.1 1.85.3.6.2 1.18.52 1.67.96.5.4.87 1 1.16 1.7.3.7.5 1.5.5 2.5 0 2.5-.2 4.86-.6 7.04-.4 2.2-1 4.3-1.7 6.4-.6 2.05-1.4 4.14-2.2 6.25-.8 2.1-1.6 4.3-2.4 6.6zm83.03 15.28c-1.93 2.6-4.18 5.14-6.74 7.6a67.566 67.566 0 0 1-7.94 6.6c-2.72 1.92-5.4 3.47-8.03 4.64-2.64 1.17-5 1.75-7.1 1.75-2.1 0-3.83-.7-5.15-2.1-1.32-1.4-1.98-3.8-1.98-7.2 0-2.4.36-5.2 1.06-8.4-1.14 2-2.57 4.1-4.28 6.1-1.7 2.1-3.67 4-5.86 5.7-2.2 1.7-4.66 3.1-7.38 4.1-2.72 1-5.68 1.6-8.9 1.6-1.43 0-2.83-.2-4.17-.6-1.4-.4-2.6-1-3.6-1.9-1-.9-1.8-2.1-2.5-3.6-.6-1.5-.9-3.4-.9-5.6l.2-2.4c.2-1.5.7-4 1.7-7.3s2.4-7.6 4.4-12.9c2-5.3 4.7-11.6 8.3-19.1.9-2 1.9-3.4 3.2-4.3 1.2-.9 2.5-1.3 3.9-1.3.6 0 1.2.1 1.9.3.6.1 1.2.4 1.8.8.6.4 1 .9 1.4 1.5.3.5.5 1.2.5 2 0 .5-.1 1-.2 1.4-.3.9-.7 2-1.4 3.4l-2.6 4.94c-1 1.8-2 3.8-3.1 5.92-1.1 2.13-2.1 4.4-3 6.62-.9 2.3-1.7 4.65-2.4 7-.7 2.4-1.1 4.7-1.2 6.9 0 1 .2 1.8.6 2.6.4.8 1.2 1.2 2.2 1.2 2.8 0 5.6-.9 8.2-2.8 2.6-1.87 5-4.2 7.2-6.98 2.2-2.8 4.2-5.8 6-9 1.8-3.2 3.2-6.1 4.4-8.74.8-1.77 1.6-3.67 2.2-5.7.6-2 1.3-3.9 2.1-5.6.7-1.7 1.6-3.16 2.6-4.3.9-1.14 2.1-1.7 3.6-1.7s2.8.6 3.7 1.8c.9 1.2 1.4 2.6 1.4 4.3 0 .9-.3 2.2-.9 3.8-.6 1.6-1.3 3.5-2.2 5.6l-2.9 6.77c-1.1 2.4-2 4.8-2.9 7.3-.9 2.45-1.7 4.9-2.3 7.24-.6 2.4-.9 4.6-.9 6.6 0 1.9 1 2.8 2.9 2.8 1.4 0 3.1-.4 5.1-1.4 2-.9 4.1-2.2 6.3-3.9 2.2-1.7 4.4-3.7 6.6-6 2.2-2.3 4.2-4.74 5.9-7.4l.7 10.6z" style="fill:#1a1a1a" transform="matrix(.30372 0 0 .30372 21.654 6.635)"/><path d="M152.6 90.5c-.48 1.2-.95 2.6-1.4 4.18-.47 1.58-.7 3-.7 4.25 0 .78.13 1.4.4 1.87.26.47.76.7 1.5.7.93 0 2.08-.32 3.47-.97 1.38-.65 2.87-1.5 4.47-2.58 1.6-1.06 3.28-2.28 5-3.66 1.74-1.4 3.47-2.9 5.18-4.3 1.7-1.5 3.34-3 4.9-4.5 1.56-1.5 2.96-2.9 4.2-4.1.34-.4.75-.6 1.24-.8.48-.2.9-.3 1.25-.3.9 0 1.6.3 2.2 1.1.6.7.9 1.7.9 2.9 0 1.1-.3 2.3-.9 3.6-.6 1.3-1.7 2.6-3.2 3.9-2.8 3-5.6 5.9-8.5 8.7-2.8 2.7-5.7 5.2-8.5 7.3-2.8 2.1-5.6 3.7-8.4 5-2.8 1.2-5.5 1.8-8.1 1.8-1.8 0-3.3-.3-4.5-.9-1.2-.6-2.1-1.4-2.9-2.4-.7-1-1.2-2.2-1.5-3.5-.3-1.4-.4-2.8-.4-4.3 0-2.6.3-5.2 1-7.9s1.4-5.2 2.3-7.4c1.6-4.1 3.1-8.1 4.7-12.1l4.4-11L170.6 15c.75-2 1.8-3.42 3.15-4.3 1.36-.8 2.7-1.2 4.07-1.2 1.4 0 2.6.4 3.74 1.3 1.1.86 1.7 2.3 1.7 4.27 0 .93-.2 1.92-.55 2.96-.4 1-.8 2.14-1.4 3.33-1.1 2.42-2.4 5.4-3.9 8.94l-5 11.6c-1.7 4.15-3.5 8.5-5.3 13l-5.4 13.2c-1.8 4.28-3.4 8.3-4.9 12.14l-3.9 9.93z" style="fill:#1a1a1a" transform="matrix(.30372 0 0 .30372 21.654 6.635)"/><path d="M245.9 76.4c.63-.43 1.2-.77 1.73-1.03.52-.26 1.03-.4 1.5-.4.97 0 1.7.44 2.18 1.3.5.86.8 1.9.8 3.16 0 1.35-.3 2.73-.9 4.13-.6 1.4-1.4 2.58-2.6 3.5-4.7 4.17-8.9 7.97-12.5 11.4-3.7 3.43-7.1 6.38-10.4 8.85-3.3 2.5-6.5 4.4-9.6 5.8-3.1 1.4-6.4 2.1-10 2.1-3.3 0-5.9-.7-7.7-2.2-1.8-1.4-2.7-3.4-2.7-6v-.6c0-.1.1-.4.1-.6.2-1.5.9-3.3 2.1-5.4 1.2-2 2.6-4.1 4.3-6.3 1.7-2.2 3.5-4.4 5.4-6.6 1.9-2.2 3.6-4.3 5.3-6.3 1.6-2 2.9-3.8 4-5.5 1.1-1.6 1.6-3 1.6-4 0-.6-.2-1.1-.62-1.5-.47-.3-1.2-.5-2.2-.5-1.8 0-3.6.5-5.46 1.4-1.9.9-3.76 2.2-5.6 3.7-1.8 1.6-3.6 3.3-5.32 5.3-1.72 2-3.3 4.1-4.9 6.2-1.5 2.2-2.9 4.3-4.2 6.5-1.2 2.2-2.3 4.2-3.2 6l-1.1 2.4-1.5 3.6-1.8 4-1.7 3.9-1.4 3.3c-.4 1-.7 1.6-.9 2-.2.5-.5 1.4-1 2.7l-1.8 4.58-2.1 5.5-2 5.4-1.7 4.58c-.5 1.3-.8 2.18-.9 2.65-.5 1.3-1 2.6-1.6 3.8-.6 1.2-1.25 2.23-2.02 3.14-.76.9-1.64 1.65-2.63 2.2-1 .5-2.1.8-3.3.8-1.6 0-2.9-.4-3.9-1.12-1-.7-1.6-2.2-1.6-4.3 0-1 .1-2.1.4-3.2.2-1.1.6-2.12 1-3.2.3-1.1.8-2.1 1.2-3.1.4-1 .8-2 1.1-2.96 2.3-5.2 4.75-10.4 7.2-15.66s4.8-10.4 7.1-15.5c2.26-5.1 4.35-10.1 6.3-15.1 1.9-4.9 3.5-9.66 4.8-14.2l1.4-3.96c.6-1.7 1.3-3.4 2.1-5s1.7-3.1 2.7-4.3c1-1.2 2.1-1.83 3.2-1.83 1.8 0 3.07.4 3.86 1.2.8.88 1.2 2 1.2 3.6 0 .3-.04.8-.13 1.5-.1.7-.2 1.4-.36 2.15l-.43 2.1c-.1.7-.3 1.2-.4 1.5 1.6-1.76 3.4-3.5 5.28-5.25 1.9-1.73 3.9-3.3 5.9-4.7 2-1.4 4.1-2.6 6.2-3.45 2.1-.9 4.2-1.35 6.3-1.35 1.5 0 2.9.2 4.36.6 1.4.42 2.7 1.03 3.8 1.84 1.17.8 2.08 1.8 2.78 3 .7 1.2 1.05 2.63 1.05 4.24 0 2.13-.56 4.4-1.6 6.8-1.1 2.44-2.4 4.9-4.06 7.3-1.6 2.46-3.37 4.84-5.26 7.15-1.9 2.3-3.6 4.4-5.3 6.3l-4.2 4.9c-1.1 1.3-1.7 2.2-1.72 2.7 0 .6.2 1.1.6 1.5.4.4 1.1.6 2 .6.78 0 1.88-.45 3.3-1.3 1.48-.9 3.5-2.3 6.1-4.36 2.6-2.1 5.96-4.8 9.97-8.3 4-3.46 9-7.8 14.87-13.07z" style="fill:#1a1a1a" transform="matrix(.30372 0 0 .30372 21.654 6.635)"/></g></svg><svg fill="none" viewBox="0 0 24 25" id="heart" xmlns="http://www.w3.org/2000/svg"><path fill-rule="evenodd" clip-rule="evenodd" d="M12.692 7.584a1 1 0 0 1-1.384 0l-.693-.665A4.5 4.5 0 0 0 3 10.166c0 2.383 1.29 4.35 3.152 5.967 1.863 1.618 4.091 2.691 5.423 3.239.278.114.572.114.85 0 1.332-.548 3.56-1.62 5.423-3.239C19.71 14.517 21 12.55 21 10.167a4.5 4.5 0 0 0-7.615-3.248l-.693.665ZM12 5.476a6.5 6.5 0 0 0-11 4.69c0 6.369 6.97 9.886 9.814 11.055a3.096 3.096 0 0 0 2.372 0C16.03 20.051 23 16.535 23 10.167a6.5 6.5 0 0 0-11-4.69Z" fill="#141718"/></svg><svg fill="none" viewBox="0 0 24 24" id="heart-line" xmlns="http://www.w3.org/2000/svg"><path d="M12.001 4.529a5.998 5.998 0 0 1 8.242.228 6 6 0 0 1 .236 8.236l-8.48 8.492-8.478-8.492a6 6 0 0 1 8.48-8.464Zm6.826 1.641a3.998 3.998 0 0 0-5.49-.153l-1.335 1.198-1.336-1.197a4 4 0 0 0-5.686 5.605L12 18.654l7.02-7.03a4 4 0 0 0-.193-5.454Z" fill="#000"/></svg><svg fill="none" viewBox="0 0 24 24" id="id-card-line" xmlns="http://www.w3.org/2000/svg"><path d="M3 6h18v12H3V6ZM2 4a1 1 0 0 0-1 1v14a1 1 0 0 0 1 1h20a1 1 0 0 0 1-1V5a1 1 0 0 0-1-1H2Zm11 4h6v2h-6V8Zm5 4h-5v2h5v-2Zm-7.5-2a2.5 2.5 0 1 1-5 0 2.5 2.5 0 0 1 5 0ZM8 13.5A3.5 3.5 0 0 0 4.5 17h7A3.5 3.5 0 0 0 8 13.5Z" fill="#000"/></svg><svg fill="none" viewBox="0 0 24 24" id="search" xmlns="http://www.w3.org/2000/svg"><path d="M18.5 18.5 22 22m-1-10.5a9.5 9.5 0 1 0-19 0 9.5 9.5 0 0 0 19 0Z" stroke="#141718" stroke-width="1.5" stroke-linecap="round" stroke-linejoin="round"/></svg><svg fill="none" viewBox="0 0 24 24" id="search-line" xmlns="http://www.w3.org/2000/svg"><path d="m18.031 16.617 4.283 4.282-1.415 1.415-4.282-4.283A8.96 8.96 0 0 1 11 20c-4.968 0-9-4.032-9-9s4.032-9 9-9 9 4.032 9 9a8.96 8.96 0 0 1-1.969 5.617Zm-2.006-.742A6.977 6.977 0 0 0 18 11c0-3.867-3.133-7-7-7s-7 3.133-7 7 3.133 7 7 7a6.977 6.977 0 0 0 4.875-1.975l.15-.15Z" fill="#000"/></svg><svg fill="none" viewBox="0 0 24 24" id="user" xmlns="http://www.w3.org/2000/svg"><path d="M18.559 19.549a7.003 7.003 0 0 0-13.118 0m13.118 0A9.976 9.976 0 0 0 22 12c0-5.523-4.477-10-10-10S2 6.477 2 12a9.977 9.977 0 0 0 3.441 7.549m13.118 0A9.961 9.961 0 0 1 12 22a9.961 9.961 0 0 1-6.559-2.451M15 9a3 3 0 1 1-6 0 3 3 0 0 1 6 0Z" stroke="#141718" stroke-width="1.5" stroke-linejoin="round"/></svg><svg fill="none" viewBox="0 0 24 24" id="user-star-line" xmlns="http://www.w3.org/2000/svg"><path d="M12 14v2a6 6 0 0 0-6 6H4a8 8 0 0 1 8-8Zm0-1c-3.315 0-6-2.685-6-6s2.685-6 6-6 6 2.685 6 6-2.685 6-6 6Zm0-2c2.21 0 4-1.79 4-4s-1.79-4-4-4-4 1.79-4 4 1.79 4 4 4Zm6 10.5-2.939 1.545.561-3.273-2.377-2.317 3.286-.477L18 14l1.47 2.977 3.285.478-2.377 2.318.56 3.272L18 21.5Z" fill="#000"/></svg><svg viewBox="0 0 497 497" id="website" xmlns="http://www.w3.org/2000/svg"><path d="M497 128.5v312c0 11.046-8.954 20-20 20H20c-11.046 0-20-8.954-20-20v-312z" fill="#faf8f8"/><path d="M290.498 294.5c0-23.196-18.804-42-42-42a41.823 41.823 0 0 0-19.482 4.782c-13.386 7.021-19.327 21.053-19.327 37.218 0 23.196 15.613 36.457 38.809 36.457 16.214 0 30.282-3.645 37.282-17.099a41.814 41.814 0 0 0 4.718-19.358z" fill="#dc4955"/><path d="M286.468 312.47c-6.73 14.21-21.2 24.03-37.97 24.03-23.2 0-42-18.8-42-42 0-16.77 9.82-31.24 24.03-37.97-2.59 5.45-4.03 11.54-4.03 17.97 0 23.2 18.8 42 42 42 6.43 0 12.52-1.44 17.97-4.03z" fill="#d82f3c"/><path d="M429.496 294.5c0-23.196-18.804-42-42-42a41.823 41.823 0 0 0-19.482 4.782c-13.386 7.021-19.327 21.053-19.327 37.218 0 23.196 15.613 36.457 38.809 36.457 16.214 0 30.282-3.645 37.282-17.099a41.814 41.814 0 0 0 4.718-19.358z" fill="#b7e546"/><path d="M425.466 312.47c-6.73 14.21-21.2 24.03-37.97 24.03-23.2 0-42-18.8-42-42 0-16.77 9.82-31.24 24.03-37.97-2.59 5.45-4.03 11.54-4.03 17.97 0 23.2 18.8 42 42 42 6.43 0 12.52-1.44 17.97-4.03z" fill="#abd641"/><path d="M497 148.5v-20l-276.011-12.798L0 128.5v312c0 11.046 8.954 20 20 20h15c-8.28 0-15-6.72-15-15v-291a6 6 0 0 1 6-6z" fill="#f0e9e6"/><path d="M497 56.5V129H0V56.5c0-11.046 8.954-20 20-20h457c11.046 0 20 8.954 20 20z" fill="#5d748a"/><g fill="#3f597d"><path d="M227.758 108.5c-8.255 0-14.947-6.716-14.947-15s6.692-15 14.947-15h208.315c8.255 0 14.947 6.716 14.947 15s-6.692 15-14.947 15z"/><ellipse cx="160.869" cy="93.5" rx="14.947" ry="15"/><path d="m171.361 104.184 12.874-12.869-13.139 1.179zM150.592 82.608l12.562-12.516-2.693 10.408z"/><ellipse cx="98.034" cy="93.5" rx="14.947" ry="15"/><path d="m108.553 104.157 12.382-12.499-12.674.836zM87.757 82.608l12.371-12.459L97.626 80.5z"/><ellipse cx="32.947" cy="93.5" rx="14.947" ry="15"/><path d="M43.769 103.846 56.49 90.66l-13.139 1.381zM22.67 82.608 34.292 70.57l-1.753 9.93z"/></g><ellipse cx="173.849" cy="80.5" fill="#b7e546" rx="14.947" ry="15"/><path d="m217.514 82.577 12.971-12.991-3.025 14.276zM446.83 103.915l13.149-13.179-10.185 3.381z" fill="#3f597d"/><ellipse cx="110.946" cy="80.5" fill="#ffbf54" rx="14.947" ry="15"/><ellipse cx="45.495" cy="80.5" fill="#dc4955" rx="14.947" ry="15"/><path d="M240.737 95.5c-8.255 0-14.947-6.716-14.947-15s6.692-15 14.947-15h208.315c8.255 0 14.947 6.716 14.947 15s-6.692 15-14.947 15z" fill="#faf8f8"/><path d="m135.893 215 226.628 2c5.523 0 10-4.477 10-10l3.479-7v-30c0-5.523-4.477-10-10-10H142l-6.107 5c-5.523 0-10 4.477-10 10v30c0 5.523 4.477 10 10 10z" fill="#aad8de"/><path d="M376 200v10c0 5.523-4.477 10-10 10H132c-5.523 0-10-4.477-10-10v-40c0-5.523 4.477-10 10-10h10v33a7 7 0 0 0 7 7z" fill="#94ccd4"/><path d="M151.5 294.5c0-23.196-18.804-42-42-42a41.823 41.823 0 0 0-19.482 4.782c-13.386 7.021-19.327 21.053-19.327 37.218 0 23.196 15.613 36.457 38.809 36.457 16.214 0 30.282-3.645 37.282-17.099A41.814 41.814 0 0 0 151.5 294.5z" fill="#ffbf54"/><path d="M147.47 312.47c-6.73 14.21-21.2 24.03-37.97 24.03-23.2 0-42-18.8-42-42 0-16.77 9.82-31.24 24.03-37.97-2.59 5.45-4.03 11.54-4.03 17.97 0 23.2 18.8 42 42 42 6.43 0 12.52-1.44 17.97-4.03z" fill="#ffa442"/><path d="M149.5 374h-70a7.5 7.5 0 0 1 0-15h70a7.5 7.5 0 0 1 0 15zM149.5 404h-80a7.5 7.5 0 0 1 0-15h80a7.5 7.5 0 0 1 0 15zM149.5 434h-80a7.5 7.5 0 0 1 0-15h80a7.5 7.5 0 0 1 0 15zM288.5 374h-70a7.5 7.5 0 0 1 0-15h70c4.143 0 7.5 3.358 7.5 7.5s-3.357 7.5-7.5 7.5zM288.5 404h-80a7.5 7.5 0 0 1 0-15h80c4.143 0 7.5 3.358 7.5 7.5s-3.357 7.5-7.5 7.5zM288.5 434h-80a7.5 7.5 0 0 1 0-15h80c4.143 0 7.5 3.358 7.5 7.5s-3.357 7.5-7.5 7.5zM427.5 374h-70c-4.143 0-7.5-3.358-7.5-7.5s3.357-7.5 7.5-7.5h70c4.143 0 7.5 3.358 7.5 7.5s-3.357 7.5-7.5 7.5zM427.5 404h-80c-4.143 0-7.5-3.358-7.5-7.5s3.357-7.5 7.5-7.5h80c4.143 0 7.5 3.358 7.5 7.5s-3.357 7.5-7.5 7.5zM427.5 434h-80c-4.143 0-7.5-3.358-7.5-7.5s3.357-7.5 7.5-7.5h80c4.143 0 7.5 3.358 7.5 7.5s-3.357 7.5-7.5 7.5z" fill="#f0e9e6"/></svg></svg>